# File created by Blade
# Date/Time:  Thu Jan 22 16:10:14 2015
# Frame Rate: 120.000 fps
#------------------------------------------------------
:FULLY-SPECIFIED
:DEGREES
1317
root 4.246716 33.285793 -3.885451 50.502928 22.347185 21.947352
RightUpLeg -26.397042 -48.482604 -30.885576
RightLeg -8.098550 -0.000000 0.000000
RightFoot 0.184084 -33.358973 35.383330
RightToeBase 13.480196 -0.000000 -0.000000
LeftUpLeg -69.419140 -10.105416 4.071583
LeftLeg 20.368282 -0.000000 -0.000000
LeftFoot -0.321453 9.002618 -30.689804
LeftToeBase 8.552849 -0.000000 -0.000000
Spine 77.980473 17.947942 14.766276
RightShoulder 20.107411 -2.135310 -42.806408
RightArm 36.829007 22.211924 23.507382
RightForeArm -0.437291 -0.000000 21.720503
RightHand 9.070757 -0.000000 -3.586585
RightHandThumb1 -24.326973 -0.000000 -32.862282
LeftShoulder -36.408135 46.846563 0.633106
LeftArm 12.357018 -30.442868 -63.769095
LeftForeArm 9.225572 0.000000 2.557991
LeftHand -28.515797 -0.000000 12.483515
LeftHandThumb1 -26.253704 0.000000 33.147579
Head 30.249659 30.842730 -9.432003
1318
root 4.225866 33.290425 -3.882888 50.170891 22.401274 21.780835
RightUpLeg -26.165678 -48.278624 -30.875478
RightLeg -8.110586 -0.000000 0.000000
RightFoot 0.128184 -33.343007 35.443904
RightToeBase 13.566045 -0.000000 -0.000000
LeftUpLeg -69.142020 -10.019422 4.185695
LeftLeg 20.342363 -0.000000 -0.000000
LeftFoot -0.302544 9.027453 -30.737417
LeftToeBase 8.581207 -0.000000 -0.000000
Spine 77.831154 17.909772 14.598809
RightShoulder 20.139575 -2.316504 -42.726779
RightArm 36.963618 22.444836 23.865317
RightForeArm -0.465915 -0.000000 22.533398
RightHand 9.308783 0.000000 -4.000088
RightHandThumb1 -24.326973 -0.000000 -32.862282
LeftShoulder -36.357146 46.792200 0.526032
LeftArm 12.322884 -30.722288 -63.611537
LeftForeArm 8.937628 -0.000000 2.623613
LeftHand -28.348290 -0.000000 12.193425
LeftHandThumb1 -26.253704 0.000000 33.147579
Head 29.815513 30.422702 -9.971168
1319
root 4.204718 33.295000 -3.881015 49.828662 22.427210 21.620833
RightUpLeg -25.935862 -48.052702 -30.898755
RightLeg -8.104930 -0.000000 0.000000
RightFoot 0.141652 -33.333406 35.391206
RightToeBase 13.574921 -0.000000 -0.000000
LeftUpLeg -68.854990 -9.931222 4.285314
LeftLeg 20.318792 -0.000000 -0.000000
LeftFoot -0.278783 9.065331 -30.798045
LeftToeBase 8.539461 -0.000000 -0.000000
Spine 77.718111 17.897952 14.387695
RightShoulder 20.056816 -2.372314 -42.592681
RightArm 37.129747 22.468921 24.253856
RightForeArm -0.275987 -0.000000 23.338236
RightHand 9.529463 0.000000 -4.636793
RightHandThumb1 -24.326973 -0.000000 -32.862282
LeftShoulder -36.423992 46.666117 0.344028
LeftArm 12.355017 -30.820193 -63.353090
LeftForeArm 8.455575 -0.000000 2.592887
LeftHand -28.228023 -0.000000 12.527117
LeftHandThumb1 -26.253704 0.000000 33.147579
Head 29.340210 30.175641 -10.474144
1320
root 4.182813 33.299280 -3.877962 49.472901 22.466217 21.436079
RightUpLeg -25.706540 -47.819696 -30.886586
RightLeg -8.110249 -0.000000 0.000000
RightFoot 0.165662 -33.334127 35.344559
RightToeBase 13.572008 -0.000000 -0.000000
LeftUpLeg -68.572140 -9.833345 4.406371
LeftLeg 20.318770 -0.000000 -0.000000
LeftFoot -0.288771 9.119220 -30.760174
LeftToeBase 8.623438 -0.000000 -0.000000
Spine 77.563872 17.841895 14.179133
RightShoulder 19.874205 -2.571174 -42.477818
RightArm 37.614567 22.427122 24.592871
RightForeArm 0.359866 -0.000000 23.843972
RightHand 10.056511 -0.000000 -5.776556
RightHandThumb1 -24.326973 -0.000000 -32.862282
LeftShoulder -36.458739 46.535775 0.144620
LeftArm 12.372426 -30.935658 -63.078471
LeftForeArm 8.076271 -0.000000 2.534216
LeftHand -28.165467 0.000000 12.801624
LeftHandThumb1 -26.253704 0.000000 33.147579
Head 28.842797 29.823315 -11.098463
1321
root 4.160574 33.304280 -3.874741 49.062620 22.487092 21.239145
RightUpLeg -25.433394 -47.534660 -30.918356
RightLeg -8.100042 -0.000000 0.000000
RightFoot 0.164806 -33.339656 35.315028
RightToeBase 13.491704 -0.000000 -0.000000
LeftUpLeg -68.231984 -9.693582 4.475300
LeftLeg 20.321168 -0.000000 -0.000000
LeftFoot -0.241037 9.096463 -30.784852
LeftToeBase 8.590101 -0.000000 -0.000000
Spine 77.440957 17.807116 13.980776
RightShoulder 19.791036 -2.642231 -42.441170
RightArm 37.858001 22.323587 25.135122
RightForeArm 0.958004 -0.000000 24.452222
RightHand 10.541143 0.000000 -6.955584
RightHandThumb1 -24.326973 -0.000000 -32.862282
LeftShoulder -36.380429 46.414490 0.092353
LeftArm 12.331732 -31.088616 -62.868957
LeftForeArm 7.866667 -0.000000 2.513299
LeftHand -28.195370 -0.000000 12.757284
LeftHandThumb1 -26.253704 0.000000 33.147579
Head 28.378813 29.448146 -11.652118
1322
root 4.138753 33.308203 -3.870831 48.659648 22.470462 21.061148
RightUpLeg -25.189142 -47.269282 -30.963983
RightLeg -8.082887 -0.000000 0.000000
RightFoot 0.173470 -33.308521 35.263745
RightToeBase 13.494646 -0.000000 -0.000000
LeftUpLeg -67.895599 -9.587632 4.566643
LeftLeg 20.326390 -0.000000 -0.000000
LeftFoot -0.256588 9.150369 -30.805507
LeftToeBase 8.579084 -0.000000 -0.000000
Spine 77.305501 17.838272 13.766026
RightShoulder 19.679856 -2.665987 -42.340283
RightArm 38.078914 22.183506 25.819867
RightForeArm 1.413381 -0.000000 25.044633
RightHand 10.985450 -0.000000 -8.084817
RightHandThumb1 -24.326973 -0.000000 -32.862282
LeftShoulder -36.362612 46.339227 0.079216
LeftArm 12.496289 -31.172846 -62.739111
LeftForeArm 7.634838 0.000000 2.396230
LeftHand -28.093475 0.000000 13.256178
LeftHandThumb1 -26.253704 0.000000 33.147579
Head 27.971049 29.020498 -12.078032
1323
root 4.113557 33.312236 -3.868364 48.231842 22.471441 20.842455
RightUpLeg -24.942612 -46.961211 -30.974683
RightLeg -8.065549 -0.000000 0.000000
RightFoot 0.169926 -33.298356 35.231179
RightToeBase 13.485635 -0.000000 -0.000000
LeftUpLeg -67.564312 -9.458306 4.693107
LeftLeg 20.349025 -0.000000 -0.000000
LeftFoot -0.266155 9.186386 -30.832264
LeftToeBase 8.555238 -0.000000 -0.000000
Spine 77.152400 17.853831 13.570437
RightShoulder 19.555910 -2.741034 -42.280906
RightArm 38.376513 22.023393 26.553308
RightForeArm 1.917219 0.000000 25.581189
RightHand 11.401033 -0.000000 -9.280179
RightHandThumb1 -24.326973 -0.000000 -32.862282
LeftShoulder -36.338488 46.187400 0.087209
LeftArm 12.588891 -31.290191 -62.567960
LeftForeArm 7.505548 -0.000000 2.327978
LeftHand -28.239101 0.000000 13.217442
LeftHandThumb1 -26.253704 0.000000 33.147579
Head 27.528894 28.625217 -12.540962
1324
root 4.090491 33.316967 -3.865259 47.809251 22.458115 20.643547
RightUpLeg -24.710629 -46.693789 -30.988490
RightLeg -8.040559 -0.000000 0.000000
RightFoot 0.191462 -33.250668 35.192400
RightToeBase 13.512974 -0.000000 -0.000000
LeftUpLeg -67.227188 -9.343594 4.803160
LeftLeg 20.377421 -0.000000 -0.000000
LeftFoot -0.265503 9.235789 -30.954695
LeftToeBase 8.397026 -0.000000 -0.000000
Spine 76.974516 17.876606 13.379285
RightShoulder 19.412349 -2.911477 -42.190722
RightArm 38.715191 21.947171 27.374540
RightForeArm 2.035759 -0.000000 26.140291
RightHand 11.861478 -0.000000 -10.337254
RightHandThumb1 -24.326973 -0.000000 -32.862282
LeftShoulder -36.150743 45.985872 0.232569
LeftArm 12.560985 -31.508498 -62.403510
LeftForeArm 7.521144 0.000000 2.346120
LeftHand -28.361695 -0.000000 13.863770
LeftHandThumb1 -26.253704 0.000000 33.147579
Head 27.153901 28.191510 -12.953563
1325
root 4.064296 33.320837 -3.863301 47.395703 22.438416 20.415804
RightUpLeg -24.562604 -46.455082 -30.919161
RightLeg -7.989596 -0.000000 0.000000
RightFoot 0.224326 -33.159196 35.138199
RightToeBase 13.562616 -0.000000 -0.000000
LeftUpLeg -66.914912 -9.195991 4.925473
LeftLeg 20.411483 -0.000000 -0.000000
LeftFoot -0.273612 9.261862 -31.016512
LeftToeBase 8.340250 -0.000000 -0.000000
Spine 76.757828 17.941191 13.171153
RightShoulder 19.295061 -3.031077 -42.042648
RightArm 38.987786 21.883225 28.299942
RightForeArm 1.931494 0.000000 26.792268
RightHand 12.293428 -0.000000 -11.304675
RightHandThumb1 -24.326973 -0.000000 -32.862282
LeftShoulder -36.208408 45.886759 0.191322
LeftArm 12.825508 -31.734513 -62.335059
LeftForeArm 7.552127 -0.000000 2.342862
LeftHand -28.543015 -0.000000 14.496614
LeftHandThumb1 -26.253704 0.000000 33.147579
Head 26.728514 27.779533 -13.351368
1326
root 4.039752 33.325239 -3.858930 46.956860 22.414983 20.210383
RightUpLeg -24.398253 -46.268467 -30.865931
RightLeg -7.911552 -0.000000 0.000000
RightFoot 0.278217 -33.005141 35.086885
RightToeBase 13.519663 -0.000000 -0.000000
LeftUpLeg -66.558852 -9.054330 5.012681
LeftLeg 20.438721 -0.000000 -0.000000
LeftFoot -0.281197 9.267021 -31.082645
LeftToeBase 8.329248 -0.000000 -0.000000
Spine 76.523331 17.962201 12.888542
RightShoulder 19.256154 -3.165282 -41.912144
RightArm 39.274238 21.860349 29.262152
RightForeArm 1.681170 -0.000000 27.415786
RightHand 12.612822 -0.000000 -12.136605
RightHandThumb1 -24.326973 -0.000000 -32.862282
LeftShoulder -36.305348 45.792536 0.149616
LeftArm 13.082761 -31.882709 -62.278867
LeftForeArm 7.485375 -0.000000 2.334098
LeftHand -28.599786 -0.000000 15.091129
LeftHandThumb1 -26.253704 0.000000 33.147579
Head 26.306113 27.374054 -13.737664
1327
root 4.016048 33.331654 -3.854095 46.515706 22.395155 19.983046
RightUpLeg -24.117416 -45.943145 -30.874159
RightLeg -7.963949 -0.000000 0.000000
RightFoot 0.317868 -33.031063 35.049974
RightToeBase 13.527276 -0.000000 -0.000000
LeftUpLeg -66.202633 -8.915325 5.136183
LeftLeg 20.449106 -0.000000 -0.000000
LeftFoot -0.304394 9.305363 -31.069856
LeftToeBase 8.383149 -0.000000 -0.000000
Spine 76.290653 17.995133 12.706735
RightShoulder 19.148061 -3.391261 -41.767231
RightArm 39.576039 21.805950 30.204764
RightForeArm 1.381100 -0.000000 27.977570
RightHand 13.017186 0.000000 -12.991376
RightHandThumb1 -24.326973 -0.000000 -32.862282
LeftShoulder -36.112947 45.620627 0.258201
LeftArm 13.110840 -32.171973 -62.155772
LeftForeArm 7.529854 -0.000000 2.469878
LeftHand -28.841983 -0.000000 15.190414
LeftHandThumb1 -26.253704 0.000000 33.147579
Head 25.916902 26.845549 -14.158810
